# xmcd
#
# Track frame offsets: 
#        150
#        14525
#        31272
#        49252
#        70807
#        88525
#        133045
#        158430
#        183992
#
# Disc length: 2631 seconds
#
# Revision: 1
# Processed by: cddbd v1.5.2PL0 Copyright (c) Steve Scherf et al.
# Submitted via: ExactAudioCopy v0.95b4
#
DISCID=6c0a4509
DTITLE=Corey Sterling and Chris Aaron Band - Get Off
DYEAR=2000
DGENRE=Blues
TTITLE0=So Excited
TTITLE1=Get Off
TTITLE2=Grain of Salt
TTITLE3=Help Me
TTITLE4=BlackBalled
TTITLE5=Franklin's Tower
TTITLE6=Peace Frog
TTITLE7=Mississippi Man
TTITLE8=Mo Money
EXTD=
EXTT0=
EXTT1=
EXTT2=
EXTT3=
EXTT4=
EXTT5=
EXTT6=
EXTT7=
EXTT8=
PLAYORDER=
